<mxfile host="13accb8c-e18e-423a-877c-a90581cfe083" modified="2020-07-16T09:33:57.003Z" agent="5.0 (Macintosh; Intel Mac OS X 10_15_5) AppleWebKit/537.36 (KHTML, like Gecko) Code/1.47.0 Chrome/78.0.3904.130 Electron/7.3.2 Safari/537.36" etag="wXDZ--S6OR0N-s0HsdKf" version="13.1.3">
    <diagram id="6hGFLwfOUW9BJ-s0fimq" name="Page-1">
        <mxGraphModel dx="950" dy="562" grid="1" gridSize="10" guides="1" tooltips="1" connect="1" arrows="1" fold="1" page="1" pageScale="1" pageWidth="827" pageHeight="1169" math="0" shadow="0">
            <root>
                <mxCell id="0"/>
                <mxCell id="1" parent="0"/>
                <mxCell id="6" value="SystemServer" style="shape=umlLifeline;perimeter=lifelinePerimeter;whiteSpace=wrap;html=1;container=1;collapsible=0;recursiveResize=0;outlineConnect=0;" vertex="1" parent="1">
                    <mxGeometry x="60" y="80" width="100" height="530" as="geometry"/>
                </mxCell>
                <mxCell id="11" value="" style="html=1;points=[];perimeter=orthogonalPerimeter;" vertex="1" parent="6">
                    <mxGeometry x="45" y="90" width="10" height="40" as="geometry"/>
                </mxCell>
                <mxCell id="12" value="&lt;font style=&quot;font-size: 8px&quot;&gt;main&lt;/font&gt;" style="edgeStyle=orthogonalEdgeStyle;html=1;align=left;spacingLeft=2;endArrow=block;rounded=0;entryX=1;entryY=0;" edge="1" target="11" parent="6">
                    <mxGeometry relative="1" as="geometry">
                        <mxPoint x="55" y="70" as="sourcePoint"/>
                        <Array as="points">
                            <mxPoint x="80" y="70"/>
                        </Array>
                    </mxGeometry>
                </mxCell>
                <mxCell id="14" value="" style="html=1;points=[];perimeter=orthogonalPerimeter;" vertex="1" parent="6">
                    <mxGeometry x="45" y="140" width="10" height="40" as="geometry"/>
                </mxCell>
                <mxCell id="15" value="&lt;font style=&quot;font-size: 8px&quot;&gt;run&lt;/font&gt;" style="edgeStyle=orthogonalEdgeStyle;html=1;align=left;spacingLeft=2;endArrow=block;rounded=0;entryX=1;entryY=0;" edge="1" target="14" parent="6" source="11">
                    <mxGeometry relative="1" as="geometry">
                        <mxPoint x="60" y="120" as="sourcePoint"/>
                        <Array as="points">
                            <mxPoint x="75" y="120"/>
                            <mxPoint x="75" y="140"/>
                        </Array>
                    </mxGeometry>
                </mxCell>
                <mxCell id="19" value="" style="html=1;points=[];perimeter=orthogonalPerimeter;" vertex="1" parent="1">
                    <mxGeometry x="105" y="270" width="10" height="40" as="geometry"/>
                </mxCell>
                <mxCell id="24" value="run" style="edgeStyle=orthogonalEdgeStyle;html=1;align=left;spacingLeft=2;endArrow=block;rounded=0;entryX=1;entryY=0;" edge="1" parent="1">
                    <mxGeometry relative="1" as="geometry">
                        <mxPoint x="10" y="130" as="sourcePoint"/>
                        <Array as="points">
                            <mxPoint x="30" y="130"/>
                            <mxPoint x="30" y="150"/>
                        </Array>
                        <mxPoint x="10" y="150" as="targetPoint"/>
                    </mxGeometry>
                </mxCell>
                <mxCell id="25" value="&lt;font style=&quot;font-size: 6px&quot;&gt;startOtherService&lt;/font&gt;" style="edgeStyle=orthogonalEdgeStyle;html=1;align=left;spacingLeft=2;endArrow=block;rounded=0;entryX=1;entryY=0;" edge="1" parent="1">
                    <mxGeometry relative="1" as="geometry">
                        <mxPoint x="115" y="250" as="sourcePoint"/>
                        <Array as="points">
                            <mxPoint x="135" y="250"/>
                            <mxPoint x="135" y="270"/>
                        </Array>
                        <mxPoint x="115" y="270" as="targetPoint"/>
                    </mxGeometry>
                </mxCell>
                <mxCell id="29" value="WMS" style="shape=umlLifeline;perimeter=lifelinePerimeter;whiteSpace=wrap;html=1;container=1;collapsible=0;recursiveResize=0;outlineConnect=0;" vertex="1" parent="1">
                    <mxGeometry x="230" y="80" width="100" height="540" as="geometry"/>
                </mxCell>
                <mxCell id="31" value="" style="html=1;points=[];perimeter=orthogonalPerimeter;" vertex="1" parent="29">
                    <mxGeometry x="45" y="200" width="10" height="40" as="geometry"/>
                </mxCell>
                <mxCell id="35" value="" style="html=1;points=[];perimeter=orthogonalPerimeter;" vertex="1" parent="29">
                    <mxGeometry x="45" y="260" width="10" height="40" as="geometry"/>
                </mxCell>
                <mxCell id="34" value="main" style="html=1;verticalAlign=bottom;endArrow=block;entryX=-0.224;entryY=0.519;entryDx=0;entryDy=0;entryPerimeter=0;" edge="1" parent="1" target="31">
                    <mxGeometry width="80" relative="1" as="geometry">
                        <mxPoint x="115" y="300" as="sourcePoint"/>
                        <mxPoint x="195" y="300" as="targetPoint"/>
                    </mxGeometry>
                </mxCell>
                <mxCell id="38" value="Text" style="text;html=1;align=center;verticalAlign=middle;resizable=0;points=[];autosize=1;" vertex="1" parent="1">
                    <mxGeometry x="511" y="432" width="40" height="20" as="geometry"/>
                </mxCell>
                <mxCell id="39" value="run" style="edgeStyle=orthogonalEdgeStyle;html=1;align=left;spacingLeft=2;endArrow=block;rounded=0;entryX=1;entryY=0;" edge="1" parent="1">
                    <mxGeometry relative="1" as="geometry">
                        <mxPoint x="290" y="310" as="sourcePoint"/>
                        <Array as="points">
                            <mxPoint x="290" y="310"/>
                            <mxPoint x="310" y="310"/>
                            <mxPoint x="310" y="355"/>
                        </Array>
                        <mxPoint x="290" y="354.9999999999999" as="targetPoint"/>
                    </mxGeometry>
                </mxCell>
            </root>
        </mxGraphModel>
    </diagram>
</mxfile>